<?xml version="1.0" encoding="UTF-8"?>
<svg version="1.1" viewBox="0 0 2048 512" width="1280" height="1280" xmlns="http://www.w3.org/2000/svg">
<path transform="translate(1189,113)" d="m0 0h42l5 4 1 4 1 99 7-11 9-10 10-8 13-6 16-4h22l16 4 14 7 10 9 9 14 5 12 5-13 8-11 7-7 13-8 10-4 15-3h16l11 2h5l10-11 4-5h7l8 7 13 12 4-2h44l4 4 1 3 1 33 8-13 9-10 8-7 15-8 19-5h21l17 4 16 8 10 8 9 10 8 14 4 12 2 11v17l-4 18-8 16-8 10-10 9-14 8-11 4-10 2h-23l-16-4-14-7-10-8-9-9-9-15-1 34-3 6-3 1-40 1 4 9 2 9v13l-4 14-7 12-6 6 14 2v-10l4-16 7-11 7-7 14-7 8-2h15l13 4 10 7 4 4 4-2 7-6 8-4 11-3h16l13 4 11 7 5 5 1-10 4-4h28l3 1 8-3h15l8 3 6 4 5-2 9-4 4-1h15l10 4 8 7 6 12 1 5v61l-5 5h-27l-4-4-1-4-1-51-2-2-5 1-1 3-1 53-4 4h-28l-4-4-1-18v-35l-1-3-7 1-1 51-3 7-2 1h-28l-4-4-1-11-7 7-10 6-10 3-14 1-14-3-11-6-8-7-7 6-9 6-9 3-6 1h-9l-13-3-11-6-7-6-6 8-6 5-8 2-9-1-9-6-4-6-2-7 1-9 1-4-12 5-18 4-20 1-20-2-15-4-10-4-10-7-5-4-9-13-4-15v-9l4-16 4-7-3-21v-5l-10 10-14 8-13 4-17 2-17-1-16-4-15-8-12-11-9-12-2-4-1 29-2 5-4 3h-41l-5-3-1-2-1-33-7 11-9 10-12 9-13 6-16 4h-23l-16-4-14-7-9-7-10-10v-2h-2l-2 4-7 8-10 8-12 6-15 4h-23l-19-5-11-6-10-8-7-7-9-14-1 33-3 4-3 1h-41l-5-2-4 2h-41l-5-4-1-4-1-88-5-6-3-1h-8l-6 4-2 4-1 89-3 5-3 1h-41l-5-3-1-4-1-89-4-5-2-1h-10l-6 4-2 5-1 88-3 4-3 1h-41l-5-5v-136l5-5h42l4 3v2l12-6 8-2h19l13 4 9 6 5 5 4-2 10-7 13-5 5-1h20l13 4 11 7 7 8 6 12 1-22 3-5 2-1h44l4 4v34h2l2-6 8-11 8-8 14-9 14-5 10-2h20l16 4 14 7 10 8 7 8 1 4 11-12 10-8 15-7 16-4h21l17 4 16 8 11 9 7 8 7 11 1-103zm311 91-7 7 5 11 2 5h1v-23zm-451 12m249 10-7 4-3 3v2h30l-2-4-5-4-3-1zm131 0-6 3-4 5-2 6 1 11 6 7 6 2h11l6-3 4-4 2-10-2-9-5-6-5-2zm124 1m-445 2-8 4-7 8-3 8v15l4 10 4 5 9 5 9 1 9-2 6-4 5-6 3-7v-18l-4-9-4-5-10-5zm510 0-8 4-7 8-3 8v15l4 10 7 7 6 3 9 1 9-2 6-4 5-6 3-7 1-12-2-10-6-9-8-5-3-1zm-570-12-7 7-8 7-11 10-5 1-5-3-8-7-6-2h-7l-10 4-6 7-3 8v15l4 10 7 6 5 2h13l9-6 4-5 2-1h7l19 14 1-3-3-13v-23l4-16 5-10zm452 44-8 16-8 10-13 9-12 5-13 3h-31l-2 3v3h14l22-4h17l16 4 12 6 6 5h1v-60zm-215 11 2 6 5 6 10 4h10l9-3 8-6 5-7zm86-3-3 2-26 1 5 5 18 13 5 2 8-11-2-5-4-7zm-328 15m411 66-40 6-8 1 1 5 8 5 9 2h21l12-3 6-4 3-3v-5l-4-3zm174 27-6 3-3 6v10l4 6 3 2h10l5-5 1-2v-12l-4-6-4-2zm-73 1-5 4-2 5v8l3 5 4 3h7l9-7 7 1 5 3v-11l1-11-8 6h-6l-8-6z" fill="#FCFAF9"/>
<path transform="translate(415,67)" d="m0 0h10l4 5-1 7-19 45-20 47-6 15 5 1 7 5 5 7 3 10v7l-3 10 6 1 7 3 12-15 20-26 14-18 10-13 14-18 10-13 14-18 10-13 8-10 2-2h7l20 11 17 12 8 6 2 4-1 6-9 10-13 13-7 8-17 17-7 8 12 2 3 1 7-2 8 1 8 5 1 3 10-2 7 1 4 4 18-13 12-9h7l5 6 10 24 5 17v10l-3 5-17 10-26 15-5 3h-2v2l6 2 5 5 1 8-12 22 1 6v8l30-11 15-5 6 1 3 4v12l-6 21-8 20-5 5-179 44-58 14 194-15 5 3 1 7-3 5-11 9-13 10-4 2-15 1-165 5h-36l-14-9-2-3-6-3-9-7-20-20-4-7v-2l-4-1-8-11-2-7 12-39 5-17v-3l-12-7-2 37-2 4-5 2h-8l-4-4-5-13-1-4-2-56-1-32v-27l8-24 7-14 2-1h8l5 3 2 3v27l-1 39v35l11-18 5-3h8l5 2 2-10 21-67 22-71 10-32 5-5 16-6 25-6zm110 113m-18 19-14 14 1 10 4 7 6-2 9-7-4-10-1-12zm-34 35-8 8-7 8-15 15v2l6 3 4 5 1 2v8l-5 6-6 3-7 1-7-3-6-4-5 3-3 4 3 11 4 6 7-4 19-14 36-26 11-8v-1l-9-2-5-2-2-5-5-16zm22 24m-137 10-14 8-4 9 7 6 1 3v7l-9 16-7 11-3 3-9 2-5 10-11 26 1 2 12-15 13-17 14-18 20-26-1-10-3-17zm160 42 2 20 3 7 6-1 34-12 1-5-22-2-10-4-3-3zm-28 9-12 7 2 7-1 7-1 3-12 3-8-4-2-2-4 1-25 14-22 13-26 15-15 9 3 1 105-37 13-5 1-7 7-6 2-1-1-9-3-9zm-104 9-12 12-1 8 11-7 7-6-2-4z" fill="#FCFAF9"/>
<path transform="translate(530,91)" d="m0 0 6 2 16 9 14 10 8 6-2 4-17 17-7 8-16 16-7 8-16 16-7 8-15 15v8l-1 3 8 18v2l14-8 10-7 5-2h6l-1-2-8-4-4-6-1-3v-9l3-6 7-6 8-1 7 3h4l3-2h8l10 8 14-1-5 6-5 5-7 8-5 2h-6l-6-2-5 5-3 2v3l11 2 6 9 12 16 4 13v5h2l2-6 4-1 17 10v5l-12 21-3 4-5-1-15-9 1-6 2-5-2-1v-7l1-6-7-14-11-11-3-2-2 10 1 10 8 10 8 13v5l-8 7 1 3 13 2 9 3 11 1 3 3-2 15-3 7-1 1-7-1-1-5-1-10-1-1-25-2-7-3-4-4v-2h-21l-3-1v7l2 3 3 24 3 4 1 7-14 7-8 2-4-3v-5l6-4 4-2v-7l-6-21-3-7 1-9-4-4 2-5 13-16 9-10 2-5-2-14-15 7-3 1h-8l-3-3-7-23h-5l-10 10-7 8-16 16-7 8-1 4 5 5 7-2 4 6-1 4-6 4h-7l-10-9-3-1-1 4-10 3h-6l8 23 9 16 5-2 11-4 13-3 8-4h4l11 21v5l-3 2h-5l-10-10-6 1-27 14-9-1-9-6-10-10-5-8v-3l-8 7-13 13-1 2-2 14-6 23-1 15-1 1h-29l-1-7 5-5 12-4h2l1-42 3-7 12-17 9-12-1-10-3-17-1-13-16 8-14 8-4 3-4 10 13 8 1 4-6 11-10 16-4 1-21-12-16-10-4-4 1-5 14-23 2-2 5 1 12 7 2-4 5-5 8-7 17-12 16-9 10-4v-4l-6-2-7-6-3-7v-10l4-9 6-5 5-2h8l8 4 5 6 2 5v11l-4 8-5 5-1 3 2-1h14l8 4 5 5 2-4 10-13 14-18 20-26 14-18 10-13 14-18 20-26 11-14z" fill="#EF7428"/>
<path transform="translate(1476,174)" d="m0 0 4 2 9 9 8 7 2 4-14 14 6 11 4 12 1 14-3 15-7 13-8 9-12 8-15 5-5 1h-24l-9-1-6 9v7l5 3h15l21-4h18l13 3 11 6 7 6 7 11 3 11v13l-4 13-9 13-11 9-15 7-17 4-11 1h-11l-18-2-17-5-11-6-9-8-6-10-3-12v-8l3-12 6-11-1-5-3-13 2-14 6-12 8-9-2-5-7-14-3-14v-11l4-16 7-12 9-9 10-6 12-5 10-2h17l16 4 2 1 2-4 11-12zm-47 52-6 3-4 5-2 6 1 11 6 7 6 2h11l6-3 4-4 2-10-2-9-5-6-5-2zm25 124-40 6-8 1 1 5 8 5 9 2h21l12-3 6-4 3-3v-5l-4-3z" fill="#EF7428"/>
<path transform="translate(743,187)" d="m0 0 14 1 11 4 8 6 6 8v2l8-7 9-7 12-5 11-2 13 1 12 4 9 7 6 8 4 9 2 8v99h-37l-1-79-1-11-5-8-6-4-3-1h-10l-8 4-4 5-2 6-1 88h-38l-1-80-2-13-6-7-5-2h-12l-6 3-5 5-3 7-1 87h-38v-132h38v15l7-8 8-6 11-4z" fill="#EF7428"/>
<path transform="translate(1104,188)" d="m0 0h21l16 4 15 8 12 11 9 14 5 13 2 12v14l-3 15-8 16-7 9-7 7-13 8-15 5-5 1h-23l-15-4-13-7-11-9-9-12-6-13-3-12v-23l3-12 8-16 9-10 9-8 14-7zm4 41-8 4-7 8-3 8v15l4 10 4 5 9 5 9 1 9-2 6-4 5-6 3-7v-18l-4-9-4-5-10-5z" fill="#EF7428"/>
<path transform="translate(1614,188)" d="m0 0h21l16 4 15 8 12 11 7 10 6 13 3 14v17l-3 14-4 10-8 12-10 10-13 8-15 5-5 1h-23l-15-4-13-7-10-9-8-9-8-16-3-13v-21l4-15 7-14 11-12 9-7 12-6zm4 41-8 4-7 8-3 8v15l4 10 7 7 6 3 9 1 9-2 6-4 5-6 3-7 1-12-2-10-6-9-8-5-3-1z" fill="#EF7428"/>
<path transform="translate(1293,188)" d="m0 0h22l15 4 11 6 9 8 7 11 5 12 3 13 1 8v15h-90l4 13 6 9 8 5 8 2h9l12-3 9-6 5-6 5 2 18 13 3 2-2 5-13 13-12 7-15 4-10 1h-11l-13-2-14-5-11-7-11-11-8-14-4-12-2-15 1-16 3-12 5-12 8-11 8-8 13-8 13-4zm5 38-7 4-3 3v2h30l-2-4-5-4-3-1z" fill="#EF7428"/>
<path transform="translate(372,192)" d="m0 0h8l8 4 5 6 2 5v11l-4 8-5 5-1 3 2-1h14l8 4 6 10 4 12 8 7 10 10 7-2 4 6-1 4-6 4h-7l-10-9-3-1-1 4-10 3h-6l8 23 9 16 5-2 11-4 13-3 8-4h4l11 21v5l-3 2h-5l-10-10-6 1-27 14-9-1-9-6-10-10-5-8v-3l-8 7-13 13-1 2-2 14-6 23-1 15-1 1h-29l-1-7 5-5 12-4h2l1-42 3-7 12-17 9-12-1-10-3-17-1-13-16 8-14 8-4 3-4 10 13 8 1 4-6 11-10 16-4 1-21-12-16-10-4-4 1-5 14-23 2-2 5 1 12 7 2-4 5-5 8-7 17-12 16-9 10-4v-4l-6-2-7-6-3-7v-10l4-9 6-5z" fill="#010101"/>
<path transform="translate(509,301)" d="m0 0 24 1 5 6 6 2 25 2 2 2 1 10v5h7l3-7 2 1 48-17 7-2v10l-8 26-6 13-10 3-118 29-168 41-4-2-7-5v-2l19-7 156-55 5-1 17-7 2-1-2-9-2-2-3-24-2-3zm9 9 2 20 3 7 6-1 34-12 1-5-22-2-10-4-3-3z" fill="#EF7428"/>
<path transform="translate(984,188)" d="m0 0h20l12 3 16 8 12 11-2 4-8 8-8 7-7 6-4-2-8-6-9-3h-7l-10 3-8 6-6 12-1 4v16l4 11 6 7 8 4 3 1h14l9-4 6-5 2-3 4 1 13 10 12 9-1 4-9 10-11 8-11 5-9 2h-23l-15-4-13-7-10-9-7-8-8-16-3-13v-24l5-17 7-12 9-10 10-8 13-6z" fill="#EF7428"/>
<path transform="translate(529,187)" d="m0 0 8 1 4 3 6-3h8l10 8 14-1-5 6-5 5-7 8-5 2h-6l-6-2-5 5-3 2v3l11 2 6 9 12 16 4 13v5h2l2-6 4-1 17 10v5l-12 21-3 4-5-1-15-9 1-6 2-5-2-1v-7l1-6-7-14-11-11-3-2-2 10 1 10 8 10 8 13v5l-8 7 1 3 13 2 9 3 11 1 3 3-2 15-3 7-1 1-7-1-1-5-1-10-1-1-25-2-7-3-4-4v-2h-21l-3-1v7l2 3 3 24 3 4 1 7-14 7-8 2-4-3v-5l6-4 4-2v-7l-6-21-3-7 1-9-4-4 2-5 13-16 9-10 2-5-2-14-15 7-3 1h-8l-3-3-7-23-5-2-3-6 1-4 6-4 5-1 4 5 1 5-1 3 8 18v2l14-8 10-7 5-2h6l-1-2-8-4-4-6-1-3v-9l3-6 7-6z" fill="#010101"/>
<path transform="translate(1191,120)" d="m0 0h38l1 78v120l-1 5h-38z" fill="#EF7428"/>
<path transform="translate(416,74)" d="m0 0h6l-3 9-13 30-16 38-18 42-8 4-4 5-2 6v10l4 8 6 5 5 2 1 4-15 7-15 9-19 14-5 6-5 5-4-2h2l1-7 24-77 18-58 14-45 2-3 21-7z" fill="#EF7428"/>
<path transform="translate(1715,350)" d="m0 0h9l9 3 5 4 4 5 4-5 8-5 7-2h10l9 3 6 5 4 8 2 10v54h-22l-1-52-3-6-5-3h-7l-5 3-3 5-1 53h-22l-1-53-3-5-3-2h-10l-5 4-2 4-1 52h-22v-78h22l1 8 8-7z" fill="#010101"/>
<path transform="translate(880,191)" d="m0 0h39v132h-38l-1-1z" fill="#EF7428"/>
<path transform="translate(1508,191)" d="m0 0h38l1 1v130l-1 1h-38z" fill="#EF7428"/>
<path transform="translate(1627,350)" d="m0 0h8l12 3 10 6 7 7 6 12 1 4v17l-4 11-6 9-9 7-9 4-5 1h-15l-10-3-9-6-7-7-5-10-2-8v-13l3-10 6-10 8-7 10-5zm1 27-6 3-3 6v10l4 6 3 2h10l5-5 1-2v-12l-4-6-4-2z" fill="#010101"/>
<path transform="translate(619,177)" d="m0 0 3 1 9 20 6 19v9l-9 6-23 13-24 14-6 4-3 6h-2l-4-16-6-9-6-7-4-7 2-4 36-26 19-14z" fill="#EF7428"/>
<path transform="translate(571,411)" d="m0 0h12l-5 5-9 8-11 8-13 1-167 5h-33l-11-7v-1l60-5z" fill="#EF7428"/>
<path transform="translate(896,118)" d="m0 0h9l11 4 8 6 6 9 2 6v14l-4 10-8 9-10 5-4 1h-12l-10-4-8-7-6-9-2-8v-8l4-12 9-10 10-5z" fill="#EF7428"/>
<path transform="translate(1523,118)" d="m0 0h9l10 3 9 7 6 9 3 11-1 10-4 9-7 8-8 5-7 2h-11l-11-4-10-9-4-8-2-9 1-9 4-10 8-9 8-4z" fill="#EF7428"/>
<path transform="translate(1555,350)" d="m0 0 13 1 10 4 9 7v3l-9 9-6 4-6-5-2-1h-11l-6 4-4 5-1 3v14l5 8 5 3 9 1 7-3 5-4 5 2 12 10-6 7-8 6-9 3h-16l-10-3-9-6-7-8-4-8-2-7v-16l3-10 7-11 11-8 8-3z" fill="#010101"/>
<path transform="translate(473,224)" d="m0 0h5l3 8 5 16 2 2h8l16-7h2l1 2v9l-19 14-36 26-19 14-18 13-3 1-3-3-7-14-6-16v-4l14-3 2-1 1-3 4 1 9 8h7l6-4-1-5-2-3-7 2-6-6 1-4 16-17 13-13 7-8zm0 10-8 8-7 8-15 15v2l6 3 4 5 1 2v8l-5 6-6 3-7 1-7-3-6-4-5 3-3 4 3 11 4 6 7-4 19-14 36-26 11-8v-1l-9-2-5-2-2-5-5-16z" fill="#FCF7F3"/>
<path transform="translate(387,316)" d="m0 0h2l4 8 9 10 9 7 5 2h6l22-11 7-4 5 1 1 2-28 16-26 15-24 14-20 12h-1v-13l7-27 1-10 7-8zm-1 12-12 12-1 8 11-7 7-6-2-4z" fill="#EF7428"/>
<path transform="translate(268,184)" d="m0 0h5l1 1v22l-3 122-1 16h-6l-5-14-3-90v-25l8-23z" fill="#EF7428"/>
<path transform="translate(515,251)" d="m0 0h1l1 8-9 10-11 14-6 8 2 4 2 3-1 8 1 4-5 2-19 11h-2l-1 2-6-12v-2l-10 4-10 3-12 3-7 4-4-2 1-2 4-2 14-10 18-13 19-14 36-26 3-2z" fill="#EF7428"/>
<path transform="translate(1619,222)" d="m0 0h12l9 3 9 7 6 11 2 11-1 12-4 11-8 9-8 4-9 2-10-1-10-4-8-8-4-8-2-7v-15l4-11 4-6 7-6zm-1 7-8 4-7 8-3 8v15l4 10 7 7 6 3 9 1 9-2 6-4 5-6 3-7 1-12-2-10-6-9-8-5-3-1z" fill="#FDFDFD"/>
<path transform="translate(1109,222)" d="m0 0h12l9 3 8 6 6 10 2 6v19l-4 11-8 9-8 4-9 2-11-1-10-5-7-7-4-8-2-7v-15l4-11 4-6 7-6 6-3zm-1 7-8 4-7 8-3 8v15l4 10 4 5 9 5 9 1 9-2 6-4 5-6 3-7v-18l-4-9-4-5-10-5z" fill="#FDFDFD"/>
<path transform="translate(896,118)" d="m0 0h9l11 4 8 6 6 9 2 6v14l-4 10-8 9-10 5-4 1h-12l-10-4-8-7-6-9-2-8v-8l4-12 9-10 10-5zm0 7-10 4-7 7-3 6-1 11 3 9 5 7 8 5 4 1h11l10-5 7-8 2-6v-12l-5-10-7-6-8-3z" fill="#FDFDFD"/>
<path transform="translate(1523,118)" d="m0 0h9l10 3 9 7 6 9 3 11-1 10-4 9-7 8-8 5-7 2h-11l-11-4-10-9-4-8-2-9 1-9 4-10 8-9 8-4zm0 7-10 4-8 9-3 10 1 9 4 8 9 8 6 2h11l9-4 7-7 3-7 1-9-3-10-7-8-7-4-4-1z" fill="#FDFDFD"/>
<path transform="translate(509,301)" d="m0 0 24 1 5 6 6 2 25 2 2 2 1 10-1 4-16 6-34 12h-3l-3-9-2-2-3-24-2-3zm9 9 2 20 3 7 6-1 34-12 1-5-22-2-10-4-3-3z" fill="#FBF3ED"/>
<path transform="translate(355,317)" d="m0 0v3l-6 9-1 4-1 39h-1l-1-14-7 8-12 12-7 8-17 17-7-8 6-9 10-12 12-16 11-14 14-18z" fill="#EF7428"/>
<path transform="translate(1445,344)" d="m0 0h18l6 3 4 5v8l-3 5-7 6-12 4-6 1h-21l-13-3-8-5-4-6v-8l2-5h14zm9 6-40 6-8 1 1 5 8 5 9 2h21l12-3 6-4 3-3v-5l-4-3z" fill="#FDFDFD"/>
<path transform="translate(300,313)" d="m0 0 10 5 7 4-5 13-15 35-7 17h-2l-7-11 10-33z" fill="#EF7428"/>
<path transform="translate(1429,219)" d="m0 0h12l10 4 6 7 2 5 1 10-2 9-4 6-5 4-8 3h-11l-9-3-7-6-3-7-1-10 2-9 6-8 7-4zm0 7-6 3-4 5-2 6 1 11 6 7 6 2h11l6-3 4-4 2-10-2-9-5-6-5-2z" fill="#FDFDFD"/>
<path transform="translate(1625,370)" d="m0 0h11l6 3 6 7 2 6v10l-5 10-5 4-5 2h-9l-8-4-6-9-1-5v-7l4-10 7-6zm3 7-6 3-3 6v10l4 6 3 2h10l5-5 1-2v-12l-4-6-4-2z" fill="#FBEEE6"/>
<path transform="translate(387,316)" d="m0 0h2l4 8 9 10-2 4-17 12-18 13-3 2 1-9 2-8 1-10 7-8zm-1 12-12 12-1 8 11-7 7-6-2-4z" fill="#FBF2EC"/>
<path transform="translate(1298,219)" d="m0 0h10l10 4 7 7 4 11-1 1h-50l-1-2 6-12 7-6zm0 7-7 4-3 3v2h30l-2-4-5-4-3-1z" fill="#FDFDFD"/>
<path transform="translate(1499,402)" d="m0 0 8 1 7 6 2 5-1 9-5 6-4 2h-9l-5-3-4-4-1-3v-9l4-6 4-3z" fill="#010101"/>
<path transform="translate(540,239)" d="m0 0 6 4 11 11 6 13-1 4-5 2-4 2-2 2-7-11-5-6-1-10z" fill="#EF7428"/>
<path transform="translate(327,389)" d="m0 0 1 2h24l-4 3-26 15-9 5-7-7v-2l18-13 3-1z" fill="#EF7428"/>
<path transform="translate(560,270)" d="m0 0h2l-1 10 3 1-3 7v4l16 9v2l4 1h-10l-13-4-9-1-2-4 8-7v-5l-3-5 1-4z" fill="#F9DECE"/>
<path transform="translate(358,224)" d="m0 0 4 2 6 5 5 2 1 4-15 7-9 5h-2l2-6z" fill="#FBEEE6"/>
<path transform="translate(336,272)" d="m0 0h2l-3 9-2 4v4l-5-2-1-2 5-10z" fill="#EF7428"/>
<path transform="translate(410,284)" d="m0 0h5l-2 4-7 6-2-5v-4z" fill="#EF7428"/>
</svg>
